<svg width="110" height="20" viewBox="0 0 110 20" fill="none" xmlns="http://www.w3.org/2000/svg">
<path d="M4.508 4.808C5.684 4.808 6.608 5.046 7.266 5.536C7.966 6.054 8.372 6.866 8.47 7.958H6.846C6.706 7.342 6.44 6.894 6.076 6.628C5.712 6.348 5.152 6.222 4.424 6.222C3.794 6.222 3.318 6.306 2.982 6.488C2.562 6.698 2.366 7.048 2.366 7.524C2.366 7.944 2.59 8.294 3.066 8.546C3.276 8.658 3.85 8.868 4.774 9.162C6.132 9.582 7 9.918 7.392 10.142C8.26 10.66 8.694 11.374 8.694 12.298C8.694 13.194 8.344 13.908 7.644 14.426C6.944 14.93 5.95 15.196 4.676 15.196C3.444 15.196 2.478 14.958 1.792 14.482C0.952 13.894 0.49 12.97 0.42 11.696H2.044C2.156 12.452 2.422 12.998 2.856 13.32C3.248 13.6 3.85 13.754 4.676 13.754C5.404 13.754 5.992 13.628 6.412 13.39C6.832 13.138 7.056 12.816 7.056 12.396C7.056 11.864 6.734 11.444 6.118 11.136C5.922 11.038 5.278 10.814 4.172 10.478C2.94 10.086 2.17 9.806 1.876 9.638C1.106 9.176 0.728 8.504 0.728 7.622C0.728 6.74 1.092 6.04 1.848 5.536C2.548 5.046 3.43 4.808 4.508 4.808ZM9.18914 5.004H10.9671L13.7111 13.152H13.7531L16.4971 5.004H18.2751L14.7191 15H12.7451L9.18914 5.004ZM23.6677 4.808C24.9557 4.808 25.9637 5.088 26.7057 5.662C27.4197 6.222 27.8677 7.048 28.0497 8.168H26.3977C26.2577 7.524 25.9497 7.048 25.5017 6.726C25.0397 6.404 24.4237 6.25 23.6677 6.25C22.7297 6.25 21.9877 6.558 21.4417 7.202C20.8397 7.874 20.5457 8.812 20.5457 10.044C20.5457 11.22 20.8117 12.13 21.3437 12.76C21.9177 13.432 22.8137 13.768 24.0317 13.768C24.5077 13.768 24.9557 13.712 25.3757 13.6C25.7677 13.488 26.1177 13.334 26.4537 13.138V11.08H23.8077V9.68H28.0917V13.908C27.5597 14.328 26.9577 14.636 26.2717 14.86C25.5437 15.084 24.7457 15.196 23.8497 15.196C22.2537 15.196 21.0217 14.692 20.1397 13.684C19.3137 12.746 18.9077 11.528 18.9077 10.044C18.9077 8.546 19.3137 7.314 20.1397 6.348C21.0077 5.312 22.1837 4.808 23.6677 4.808ZM32.7517 5.004H34.6137L38.4357 15H36.6857L35.7757 12.494H31.5897L30.6797 15H28.9297L32.7517 5.004ZM32.0797 11.15H35.2857L33.7177 6.768H33.6617L32.0797 11.15ZM41.6096 10.8C40.9516 11.332 40.2236 11.85 39.4116 12.382L38.9636 10.884C41.2456 9.442 42.7996 8.042 43.6256 6.684H39.4956V5.256H41.5816C41.4136 4.738 41.2316 4.248 41.0356 3.772L42.4636 3.366C42.6876 4.052 42.8696 4.682 42.9956 5.256H45.2076V6.516C44.8016 7.426 44.1856 8.322 43.3456 9.204C44.2276 9.666 45.0396 10.198 45.7676 10.814L44.9416 12.074C44.3256 11.5 43.6956 11.01 43.0796 10.59V16.484H41.6096V10.8ZM50.0096 16.246H47.7276C46.6636 16.246 46.1316 15.644 46.1316 14.468V3.576H47.6016V14.272C47.6016 14.636 47.7556 14.832 48.0636 14.832H49.7576C50.0096 14.832 50.1916 14.72 50.3036 14.524C50.3876 14.3 50.4576 13.572 50.4996 12.312L51.8996 12.76C51.8156 14.398 51.6476 15.392 51.4096 15.742C51.1436 16.078 50.6816 16.246 50.0096 16.246ZM59.2496 3.464L60.6216 3.828C60.4816 4.458 60.3416 5.046 60.1876 5.606H65.4796C65.4796 10.478 65.4096 13.474 65.2696 14.594C65.1016 15.798 64.3036 16.4 62.8756 16.4C62.6796 16.4 62.3156 16.372 61.8116 16.33L61.4756 15.028C61.9236 15.07 62.3016 15.098 62.6376 15.098C63.3796 15.098 63.8136 14.706 63.9256 13.936C64.0096 13.278 64.0516 10.968 64.0796 7.006H63.5756C63.2816 9.246 62.8756 11.038 62.3436 12.354C61.6996 13.838 60.7336 15.182 59.4736 16.358L58.5636 15.196C59.7116 14.16 60.5656 13.012 61.1396 11.724C61.6296 10.534 62.0076 8.966 62.2736 7.006H61.5736C60.9856 9.974 59.9356 12.158 58.4096 13.53L57.4716 12.438C58.8156 11.29 59.7536 9.484 60.2716 7.006H59.6836C59.3336 7.832 58.9276 8.532 58.4656 9.092L57.4016 8.182C58.2696 7.09 58.8856 5.508 59.2496 3.464ZM54.5456 7.678C54.4336 8.336 54.3076 8.98 54.1536 9.596L52.8656 9.232C53.2436 7.762 53.4536 6.208 53.5096 4.584L54.8116 4.682C54.7836 5.214 54.7556 5.746 54.7136 6.278H55.3156V3.52H56.7436V6.278H57.6956V7.678H56.7436V10.478C57.0376 10.338 57.3316 10.198 57.6396 10.058V11.43C57.3316 11.57 57.0376 11.696 56.7436 11.836V16.456H55.3156V12.41C54.6856 12.634 54.0416 12.858 53.3836 13.054L53.0336 11.64C53.8036 11.486 54.5596 11.276 55.3156 11.024V7.678H54.5456ZM70.6316 11.318C70.3936 11.486 70.1556 11.64 69.9316 11.78L69.1196 10.73V16.358H67.7056V7.202H70.5896C70.4076 6.726 70.2116 6.292 69.9876 5.872H67.1736V4.472H72.6056C72.4936 4.164 72.3676 3.87 72.2416 3.604L73.8376 3.352C73.9776 3.688 74.1036 4.066 74.2156 4.472H79.6896V5.872H76.7636C76.5676 6.348 76.3576 6.796 76.1336 7.202H79.1296V14.692C79.1296 15.812 78.6396 16.386 77.6876 16.386H76.2596L75.8956 15.07L77.2396 15.126C77.5476 15.126 77.7156 14.874 77.7156 14.384V10.744L76.6936 11.752C76.5396 11.57 76.3856 11.402 76.2176 11.234V14.86H70.6316V11.318ZM77.7156 10.576V8.49H75.0976C76.1056 9.204 76.9876 9.904 77.7156 10.576ZM74.8876 8.49H71.8776L72.8156 9.33C72.2696 9.974 71.6536 10.562 70.9536 11.08H76.0636C75.4896 10.52 74.8036 9.946 73.9916 9.358L74.8876 8.49ZM71.7236 8.49H69.1196V10.492C70.1556 9.918 71.0236 9.246 71.7236 8.49ZM74.8036 13.572V12.368H72.0456V13.572H74.8036ZM72.0876 7.202H74.5516C74.7756 6.768 74.9716 6.32 75.1676 5.872H71.5836C71.7516 6.292 71.9196 6.726 72.0876 7.202ZM80.9916 6.964H82.0836V3.576H83.5116V6.964H84.5896V8.336H83.5116V12.004C83.8476 11.836 84.1556 11.654 84.4636 11.458V12.872C83.4276 13.488 82.3356 14.006 81.1736 14.44L80.8096 13.04C81.2296 12.928 81.6636 12.802 82.0836 12.648V8.336H80.9916V6.964ZM86.4936 9.68C86.4656 10.884 86.3256 11.976 86.0736 12.956H86.9556C87.2076 12.928 87.3616 12.718 87.4316 12.354C87.4876 11.976 87.5296 11.08 87.5436 9.68H86.4936ZM86.0316 13.096C85.6956 14.328 85.2056 15.406 84.5616 16.316L83.4976 15.364C84.5196 13.964 85.0516 12.004 85.1076 9.512V5.494H89.1396C89.1116 4.864 89.1116 4.206 89.1116 3.52H90.4556L90.4836 5.494H91.9956C91.7156 4.878 91.4076 4.332 91.0716 3.87L92.1356 3.436C92.4856 3.94 92.7936 4.486 93.0456 5.074L92.0796 5.494H93.4936V6.824H90.5396C90.6236 8.476 90.7496 9.736 90.9176 10.632C90.9316 10.73 90.9456 10.828 90.9736 10.912C91.3656 10.002 91.6876 8.994 91.9256 7.902L93.1016 8.392C92.6816 10.114 92.1216 11.57 91.4356 12.774C91.5476 13.124 91.6596 13.418 91.7856 13.642C92.0936 14.258 92.3036 14.566 92.4436 14.566C92.5556 14.566 92.6676 13.964 92.7936 12.76L93.9976 13.432C93.7036 15.364 93.2696 16.33 92.6956 16.33C92.1916 16.33 91.6596 15.91 91.1136 15.07C90.9176 14.776 90.7356 14.44 90.5676 14.062C89.8116 15.014 88.9576 15.742 88.0056 16.274L87.1376 15.14C88.2996 14.552 89.2656 13.684 90.0496 12.564C89.9236 12.13 89.8116 11.668 89.6996 11.164C89.4476 10.016 89.2796 8.574 89.1956 6.824H86.5076V8.462H88.8456C88.8456 11.094 88.7196 12.69 88.4956 13.264C88.2716 13.824 87.8796 14.118 87.2916 14.146H86.3536L86.0316 13.096Z" fill="black"/>
<path d="M100.263 2C102.511 3.17167 104.409 5.33467 104.619 7.80833C105.26 7.33333 105.822 6.66667 105.822 5.897C107.726 7.60533 107.792 9.73433 107.806 10.3517L107.808 10.4623C107.808 10.8103 107.781 11.1637 107.726 11.5193C107.364 13.7537 105.834 15.5813 103.803 16.3173L103.778 16.326C103.452 16.434 103.098 16.5217 102.713 16.5823C102.388 16.6343 102.059 16.6624 101.729 16.6663C99.062 16.6313 96.3123 14.8837 95.888 12.321C95.5447 9.99233 95.888 7.33333 98.5897 4.74567L98.6523 5.144C98.7673 5.86133 98.9063 6.607 99.1147 7.04133L99.3187 6.66467L99.419 6.47467L99.5203 6.278C100.104 5.12467 100.552 3.857 100.263 2Z" fill="#EA3323"/>
<path d="M98.4587 13.9433V12.6657H99.8777V13.9433H100.336V11.0567H99.8777V12.2613H98.4587V11.0567H98V13.9433H98.4587ZM102.461 14C102.888 14 103.225 13.8583 103.472 13.5753C103.707 13.3047 103.825 12.9487 103.825 12.504C103.825 12.0593 103.707 11.6993 103.472 11.4287C103.225 11.1417 102.888 11 102.461 11C102.03 11 101.692 11.1417 101.449 11.4327C101.214 11.7077 101.101 12.0633 101.101 12.504C101.101 12.9407 101.214 13.2963 101.449 13.5713C101.693 13.8547 102.029 14 102.461 14ZM102.461 13.5833C102.171 13.5833 101.943 13.4823 101.787 13.2843C101.634 13.0903 101.559 12.8317 101.559 12.5043C101.559 12.1727 101.634 11.9137 101.787 11.7197C101.947 11.5177 102.171 11.4163 102.461 11.4163C102.751 11.4163 102.974 11.5097 103.131 11.7037C103.284 11.8977 103.362 12.1643 103.362 12.504C103.362 12.8437 103.284 13.1063 103.131 13.2963C102.974 13.4863 102.751 13.5837 102.461 13.5837L102.461 13.5833ZM105.416 13.9433V11.461H106.333V11.0567H104.04V11.461H104.958V13.9433H105.416Z" fill="white"/>
</svg>
